<?xml version="1.0" encoding="UTF-8"?><svg id="Layer_1" xmlns="http://www.w3.org/2000/svg" viewBox="0 0 594.74 594.74"><defs><style>.cls-1{fill:#0e47ff;}.cls-2{fill:#fff8ee;}</style></defs><g id="Lag_2"><g id="Lag_1-2"><circle class="cls-1" cx="297.37" cy="297.37" r="297.37"/><path class="cls-2" d="M357.86,215.6c32.01,.06,57.94,25.99,58,58,0,1.5,0,3-.16,4.42-1,12.93-6.3,25.16-15.05,34.73l-4.06,4.06-99,99-.21-.21-.21,.21-98.13-98.12h0l-.22-.22-5.34-5.34c-8.46-9.43-13.55-21.4-14.48-34.03v-.1c-.12-1.41-.17-2.84-.17-4.37-.04-32.03,25.89-58.03,57.92-58.08,15.32-.02,30.03,6.02,40.91,16.81l19.7,19.49,19.7-19.49c10.84-10.78,25.52-16.81,40.8-16.77m0-28c-22.66-.03-44.41,8.91-60.5,24.87-33.74-33.43-88.19-33.18-121.62,.56-15.98,16.12-24.93,37.91-24.91,60.61,0,2.21,.08,4.39,.25,6.56,1.43,19.07,9.2,37.12,22.08,51.26h0l5.84,5.84h0l118.18,118.18,.21-.21,.21,.21,118.83-118.82,4.45-4.45c13.28-14.24,21.31-32.58,22.78-52,.16-2.15,.24-4.33,.24-6.52,0-47.5-38.5-86-86-86l-.04-.09Z"/></g></g></svg>