<svg xmlns="http://www.w3.org/2000/svg" viewBox="0 0 594.73 594.73"><defs><style>.cls-1{fill:#f4f6fd;}.cls-2{fill:#0e47ff;}</style></defs><g id="Lag_2" data-name="Lag 2"><g id="Lag_1-2" data-name="Lag 1"><circle class="cls-1" cx="297.37" cy="297.37" r="297.37"/><path class="cls-2" d="M197.6,363.05v8q-.18-2-.18-4C197.42,365.7,197.48,364.36,197.6,363.05Z"/><path class="cls-2" d="M246.09,411.41c-1.35.13-2.72.19-4.11.19s-2.76-.06-4.11-.19Z"/><path class="cls-2" d="M329.13,411.41c-1.35.13-2.72.19-4.11.19s-2.76-.06-4.11-.19Z"/><path class="cls-2" d="M169.88,241.24V367a72.11,72.11,0,0,0,72.1,72.1h83a72,72,0,0,0,72.1-72.1V241.24ZM329.13,411.41c-1.35.13-2.72.19-4.11.19s-2.76-.06-4.11-.19H246.09c-1.35.13-2.72.19-4.11.19s-2.76-.06-4.11-.19A44.56,44.56,0,0,1,197.6,371q-.18-2-.18-4c0-1.34.06-2.68.18-4V269H369.39v94c.13,1.35.19,2.72.19,4.11s-.06,2.75-.19,4.1a43.78,43.78,0,0,1-2,9.63A44.59,44.59,0,0,1,329.13,411.41Z"/><path class="cls-2" d="M465.12,313.34a72.11,72.11,0,0,1-70.37,72.09A71.92,71.92,0,0,0,397.12,367v-9.32a44.56,44.56,0,0,0,0-88.75V241.36A72.1,72.1,0,0,1,465.12,313.34Z"/><path class="cls-2" d="M369.58,367c0,1.38-.06,2.75-.19,4.1v-8.21C369.52,364.28,369.58,365.65,369.58,367Z"/><rect class="cls-2" x="189.94" y="167.09" width="71.8" height="27.73" transform="translate(406.8 -44.88) rotate(90)"/><rect class="cls-2" x="247.6" y="167.09" width="71.8" height="27.73" transform="translate(464.46 -102.54) rotate(90)"/><rect class="cls-2" x="305.27" y="167.09" width="71.8" height="27.73" transform="translate(522.12 -160.21) rotate(90)"/></g></g></svg>