<svg xmlns="http://www.w3.org/2000/svg" viewBox="0 0 594.73 594.73"><defs><style>.cls-1{fill:#f4f6fd;}.cls-2{fill:#0e47ff;}</style></defs><g id="Lag_2" data-name="Lag 2"><g id="Lag_1-2" data-name="Lag 1"><circle class="cls-1" cx="297.37" cy="297.37" r="297.37"/><path class="cls-2" d="M377.26,251.72v71.76a19.65,19.65,0,0,1-11.16,17.66,19.4,19.4,0,0,1-8.37,1.87H237a19.32,19.32,0,0,1-8.36-1.87,19.75,19.75,0,0,1-9.3-9.28,19.44,19.44,0,0,1-1.87-8.38V251.72H377.26m29-29H188.47V323.48A48.49,48.49,0,0,0,237,372H357.73a48.49,48.49,0,0,0,48.53-48.53V222.72Z"/><rect class="cls-2" x="188.47" y="174.27" width="27.73" height="48.45"/><rect class="cls-2" x="137.11" y="166.57" width="79.09" height="27.73" transform="translate(353.31 360.88) rotate(180)"/><circle class="cls-2" cx="363.23" cy="413.5" r="29.99"/><circle class="cls-2" cx="227.1" cy="413.5" r="29.99"/></g></g></svg>