<svg xmlns="http://www.w3.org/2000/svg" viewBox="0 0 594.73 594.73"><defs><style>.cls-1{fill:#f4f6fd;}.cls-2{fill:#0e47ff;}</style></defs><g id="Lag_2" data-name="Lag 2"><g id="Lag_1-2" data-name="Lag 1"><circle class="cls-1" cx="297.37" cy="297.37" r="297.37"/><path class="cls-2" d="M416.88,321.46v27.59h-6.31v-.12l-5.62.12c-4.09.14-8.13.14-12.16.14q-5.43,0-10.69-.14c-13.35-.28-26.07-1.17-40.05-2.71H341c-13-2-52.4-8-67.07-47a67.31,67.31,0,0,1-.1-47c.58-1.54,1.21-3.1,1.9-4.6l-.75.25c-3.82,1.31-7.46,2.78-10.94,4.35a120.11,120.11,0,0,0-55.25,49.82H177.85c16.47-40.35,55.39-64.59,55.39-64.59a152.26,152.26,0,0,1,32.64-15.67,67.42,67.42,0,0,1,22.56-3.86,64.27,64.27,0,0,1,44.94,18,38.4,38.4,0,0,0-10.19,2.34l-.1,0a39.83,39.83,0,0,0-23.31,51.29C306.66,308,322.6,315.57,345.11,319a424.35,424.35,0,0,0,47.68,2.67c4,0,8.09-.05,12.29-.21Z"/></g></g></svg>