<?xml version="1.0" encoding="UTF-8"?><svg id="Layer_2" xmlns="http://www.w3.org/2000/svg" viewBox="0 0 322.73 322.73"><defs><style>.cls-1{fill:#0e47ff;}.cls-2{fill:#f4f6fd;}</style></defs><g id="Layer_1-2"><circle class="cls-2" cx="161.36" cy="161.36" r="161.36"/><path class="cls-1" d="M84.87,145.59v-1.73c0-20.89,15.1-38.7,35.68-42.13,13.36-2.27,27.49,2.17,37.23,11.93l3.59,3.58,3.32-3.58c10.01-9.76,23.88-14.2,37.5-11.93,20.59,3.43,35.68,21.25,35.68,42.13v1.73c0,12.4-5.14,24.26-14.22,32.72l-54,50.41c-2.24,2.09-5.2,3.26-8.28,3.26s-6.04-1.17-8.28-3.26l-54-50.41c-9.07-8.46-14.22-20.32-14.22-32.72h0Z"/></g></svg>