<?xml version="1.0" encoding="UTF-8"?><svg id="Layer_1" xmlns="http://www.w3.org/2000/svg" viewBox="0 0 322.73 322.73"><defs><style>.cls-1{fill:#f4f6fd;}.cls-2{fill:#141414;}</style></defs><circle class="cls-1" cx="161.36" cy="161.36" r="161.36"/><path class="cls-2" d="M207.16,107.93H113.66c-3.16,0-5.72,2.56-5.72,5.72v55.34c0,12.64,10.26,22.9,22.9,22.9h45.8c12.64,0,22.9-10.26,22.9-22.9h7.63c16.85,0,30.53-13.69,30.53-30.53s-13.69-30.53-30.53-30.53Zm0,45.8h-7.63v-30.53h7.63c8.41,0,15.27,6.86,15.27,15.27s-6.85,15.27-15.27,15.27Zm11.45,45.8H88.85c-2.11,0-3.82,1.72-3.82,3.82,0,6.32,5.13,11.45,11.45,11.45h114.49c6.32,0,11.45-5.13,11.45-11.45,0-2.1-1.72-3.82-3.82-3.82Z"/></svg>