<svg xmlns="http://www.w3.org/2000/svg" viewBox="0 0 515.05 155.08"><g id="Lag_2" data-name="Lag 2"><g id="Lag_1-2" data-name="Lag 1"><path d="M99.17,152.34V82.5H13.5v69.84H0V2.74H13.5V70.26H99.17V2.74h13.5v149.6Z"/><path d="M215.22,2.74h-16L148.41,128.18l-.7,1.71h14.74a57.27,57.27,0,0,1,26.36-23.77c1.66-.75,3.4-1.45,5.22-2.08l.36-.12c-.33.72-.63,1.46-.91,2.2a32.15,32.15,0,0,0,.05,22.4c7,18.63,25.81,21.5,32,22.44l.27,0,.26,0c6.67.74,12.74,1.16,19.11,1.3q2.51.06,5.1.06c1.92,0,3.85,0,5.8-.06l2.68-.06v.06h17Zm35.05,136.45a198.53,198.53,0,0,1-22.75-1.27c-10.74-1.64-18.35-5.26-21.63-14a19,19,0,0,1,11.17-24.48,18.7,18.7,0,0,1,4.86-1.12,30.71,30.71,0,0,0-21.44-8.57,32.73,32.73,0,0,0-10.77,1.84,73.8,73.8,0,0,0-15.57,7.48L207,16l35.87,90.09,13.26,33C254.13,139.17,252.2,139.19,250.27,139.19Z"/><path d="M388.24,2.74h14.13l-57.6,149.6H331.48L274.72,2.74h14.35L338.44,136.3Z"/><path d="M501.75,40.93c-3.16-15.4-14.13-29.11-36.5-29.11-17.93,0-34.18,12-34.18,29.54,0,13.5,8.44,22.78,23.63,26.37L477.49,73c23.21,5.49,37.56,19,37.56,40.09,0,23-19.41,42-49.59,42-32.91,0-51.06-21.73-53.59-44.52l12.45-4c1.9,19.42,16.46,36.51,41.14,36.51,23,0,36.29-12.66,36.29-28.91,0-13.93-9.7-24.05-26.79-28.06l-22.58-5.28c-20-4.64-34.6-17.3-34.6-38.61C417.78,19,440.14,0,464.83,0c30.6,0,44.52,17.72,48.74,36.71Z"/><path d="M12.75,3.72v147.8H.84V3.72H12.75m.84-.85H0V152.36H13.59V2.87Z"/><path d="M111.83,3.64V151.45H100V3.64h11.8m.84-.84H99.19V152.29h13.48V2.8Z"/><path d="M98.59,70.87v11H14.2v-11H98.59m.6-.61H13.59V82.5h85.6V70.26Z"/><path d="M147.59,129.89h.12l.7-1.71C148.12,128.76,147.84,129.33,147.59,129.89Z"/></g></g></svg>