<svg xmlns="http://www.w3.org/2000/svg" width="22.928" height="22.928" viewBox="0 0 22.928 22.928">
  <path id="Icon_feather-message-circle" data-name="Icon feather-message-circle" d="M24.428,13.91a9.277,9.277,0,0,1-1,4.207,9.41,9.41,0,0,1-8.414,5.2,9.277,9.277,0,0,1-4.207-1l-6.31,2.1,2.1-6.31a9.277,9.277,0,0,1-1-4.207A9.41,9.41,0,0,1,10.81,5.5a9.277,9.277,0,0,1,4.207-1h.554a9.388,9.388,0,0,1,8.857,8.857Z" transform="translate(-3 -3)" fill="none" stroke="#a1a1a1" stroke-linecap="round" stroke-linejoin="round" stroke-width="3"/>
</svg>
