<svg xmlns="http://www.w3.org/2000/svg" width="22.528" height="22.528" viewBox="0 0 22.528 22.528">
  <path id="Icon_material-person-outline" data-name="Icon material-person-outline" d="M16.764,8.556a2.826,2.826,0,1,1-2.826,2.826,2.825,2.825,0,0,1,2.826-2.826m0,12.109c4,0,8.207,1.964,8.207,2.826v1.48H8.556v-1.48c0-.861,4.211-2.826,8.207-2.826M16.764,6a5.382,5.382,0,1,0,5.382,5.382A5.38,5.38,0,0,0,16.764,6Zm0,12.109C13.171,18.109,6,19.912,6,23.491v4.036H27.528V23.491C27.528,19.912,20.356,18.109,16.764,18.109Z" transform="translate(-5.5 -5.5)" fill="#a1a1a1" stroke="#a1a1a1" stroke-width="1"/>
</svg>
