<?xml version="1.0" encoding="UTF-8"?><svg id="Layer_2" xmlns="http://www.w3.org/2000/svg" viewBox="0 0 322.73 322.73"><defs><style>.cls-1{fill:#f4f6fd;}</style></defs><g id="Layer_1-2"><circle class="cls-1" cx="161.36" cy="161.36" r="161.36"/><path d="M239.07,136.79c0,1.68-.56,3.37-1.7,4.78l-12.13,14.97c-1.53,1.89-3.79,2.88-6.07,2.88-1.7,0-3.42-.55-4.85-1.68l-14.1-11.11v63.3c0,6.44-5.22,11.66-11.66,11.66h-54.39c-6.43,0-11.66-5.22-11.66-11.66v-63.3l-14.3,11.12c-1.23,1.12-2.94,1.46-4.64,1.46-2.28,0-4.54-.99-6.07-2.88l-12.13-14.75c-1.15-1.41-1.7-3.11-1.7-4.78,0-2.25,1-4.48,2.92-5.99l32.78-25.89c3.11-2.44,6.97-3.77,10.71-3.77h8.38c1.87,11.01,11.39,19.43,22.92,19.43s21.06-8.41,22.92-19.43h8.16c3.97,0,7.82,1.33,10.92,3.78l32.78,25.89c1.92,1.51,2.92,3.75,2.92,5.98Z"/></g></svg>