<?xml version="1.0" encoding="UTF-8"?><svg id="Layer_2" xmlns="http://www.w3.org/2000/svg" viewBox="0 0 322.73 322.73"><defs><style>.cls-1{fill:#f4f6fd;}</style></defs><g id="Layer_1-2"><circle class="cls-1" cx="161.36" cy="161.36" r="161.36"/><path d="M241.66,155.69c-9.58-1.75-14.37-6.15-14.46-6.23-3.76-3.74-9.93-3.71-13.79-.12-.31,.29-7.71,7.05-22.61,7.05s-22.31-6.77-22.51-6.94c-3.74-3.77-9.9-3.71-13.77-.12-.31,.29-7.71,7.05-22.61,7.05s-22.29-6.75-22.5-6.93c-3.74-3.77-9.89-3.74-13.76-.09-.2,.15-4.99,4.57-14.57,6.32-5.33,.98-8.86,6.09-7.89,11.42,.98,5.33,6.07,8.92,11.43,7.89,7.77-1.42,13.72-4.09,17.85-6.51,5.98,3.54,15.79,7.57,29.46,7.57s23.46-4.02,29.45-7.56c5.99,3.54,15.78,7.54,29.45,7.54s23.48-4.01,29.46-7.55c4.13,2.43,10.08,5.1,17.85,6.52,5.39,1.04,10.45-2.56,11.43-7.89,.98-5.32-2.54-10.44-7.88-11.42Zm0,44.23c-9.58-1.75-14.37-6.15-14.46-6.23-3.75-3.74-9.91-3.72-13.77-.12-.33,.27-7.72,7.05-22.62,7.05s-22.31-6.77-22.51-6.94c-3.75-3.76-9.91-3.72-13.77-.12-.32,.27-7.71,7.05-22.61,7.05s-22.31-6.77-22.51-6.94c-3.75-3.76-9.9-3.73-13.77-.11-.2,.18-4.99,4.58-14.57,6.34-5.33,.98-8.86,6.09-7.89,11.42,.98,5.33,6.07,8.92,11.43,7.88,7.77-1.41,13.71-4.08,17.85-6.5,5.98,3.54,15.8,7.55,29.47,7.55s23.45-4.01,29.43-7.54c5.98,3.52,15.8,7.54,29.48,7.54s23.46-4.01,29.17-7.55c4.13,2.43,10.08,5.1,17.85,6.52,5.65,1.03,10.71-2.56,11.69-7.89,.98-5.34-2.55-10.43-7.88-11.41ZM84.61,130.82c7.77-1.42,13.72-4.08,17.85-6.52,5.98,3.54,15.79,7.57,29.46,7.57s23.46-4.02,29.45-7.56c5.99,3.54,15.78,7.54,29.45,7.54s23.48-4.01,29.46-7.55c4.13,2.43,10.08,5.1,17.85,6.52,5.39,1.04,10.45-2.56,11.43-7.89,.97-5.33-2.56-10.44-7.89-11.42-9.58-1.75-14.37-6.15-14.46-6.23-3.75-3.74-9.91-3.72-13.77-.12-.31,.29-7.71,7.05-22.61,7.05s-22.31-6.77-22.51-6.94c-3.75-3.76-9.91-3.72-13.77-.12-.31,.29-7.71,7.05-22.61,7.05s-22.3-6.75-22.52-6.93c-3.74-3.76-9.89-3.73-13.76-.11-.2,.18-4.99,4.58-14.57,6.34-5.33,.98-8.86,6.09-7.89,11.42,.98,5.33,6.07,8.92,11.43,7.87Z"/></g></svg>